# xmcd CD database file
#
# Track frame offsets:
#	150
#	26121
#	64175
#	107658
#	147499
#	195674
#	227779
#
# Disc length: 3545 seconds
#
# Revision: 0
# Processed by: cddbd v1.5.2PL0 Copyright (c) Steve Scherf et al.
# Submitted via: CDex 1.51
#
DISCID=630dd707
DTITLE=Ed Jones - Seven moments
DYEAR=2001
DGENRE=Jazz
TTITLE0=Kickstart
TTITLE1=Pushing the boat back
TTITLE2=Mind the gap
TTITLE3=5am
TTITLE4=Blue reflections
TTITLE5=Rush hour
TTITLE6=Out of chaos
EXTD=YEAR: 2001
EXTT0=
EXTT1=
EXTT2=
EXTT3=
EXTT4=
EXTT5=
EXTT6=
PLAYORDER=
